<svg id="visual" viewBox="0 0 2000 100" width="2000" height="100" xmlns="http://www.w3.org/2000/svg" xmlns:xlink="http://www.w3.org/1999/xlink" version="1.1"><path d="M0 5L16.7 18.7C33.3 32.3 66.7 59.7 100 69.5C133.3 79.3 166.7 71.7 200 61.2C233.3 50.7 266.7 37.3 300 42.5C333.3 47.7 366.7 71.3 400 72.2C433.3 73 466.7 51 500 35.3C533.3 19.7 566.7 10.3 600 16.7C633.3 23 666.7 45 700 47.7C733.3 50.3 766.7 33.7 800 36.2C833.3 38.7 866.7 60.3 900 72.5C933.3 84.7 966.7 87.3 1000 81.8C1033.3 76.3 1066.7 62.7 1100 63.3C1133.3 64 1166.7 79 1200 85.3C1233.3 91.7 1266.7 89.3 1300 80.3C1333.3 71.3 1366.7 55.7 1400 51.2C1433.3 46.7 1466.7 53.3 1500 53.8C1533.3 54.3 1566.7 48.7 1600 50.5C1633.3 52.3 1666.7 61.7 1700 68.8C1733.3 76 1766.7 81 1800 79C1833.3 77 1866.7 68 1900 55.5C1933.3 43 1966.7 27 1983.3 19L2000 11L2000 101L1983.3 101C1966.7 101 1933.3 101 1900 101C1866.7 101 1833.3 101 1800 101C1766.7 101 1733.3 101 1700 101C1666.7 101 1633.3 101 1600 101C1566.7 101 1533.3 101 1500 101C1466.7 101 1433.3 101 1400 101C1366.7 101 1333.3 101 1300 101C1266.7 101 1233.3 101 1200 101C1166.7 101 1133.3 101 1100 101C1066.7 101 1033.3 101 1000 101C966.7 101 933.3 101 900 101C866.7 101 833.3 101 800 101C766.7 101 733.3 101 700 101C666.7 101 633.3 101 600 101C566.7 101 533.3 101 500 101C466.7 101 433.3 101 400 101C366.7 101 333.3 101 300 101C266.7 101 233.3 101 200 101C166.7 101 133.3 101 100 101C66.7 101 33.3 101 16.7 101L0 101Z" fill="#6c041a" stroke-linecap="round" stroke-linejoin="miter"></path></svg>