<svg id="visual" viewBox="0 0 1800 100" width="1800" height="100" xmlns="http://www.w3.org/2000/svg" xmlns:xlink="http://www.w3.org/1999/xlink" version="1.1"><path d="M0 61L13 56.3C26 51.7 52 42.3 78.2 36.3C104.3 30.3 130.7 27.7 156.8 31.8C183 36 209 47 235 50.8C261 54.7 287 51.3 313 45.2C339 39 365 30 391.2 30.2C417.3 30.3 443.7 39.7 469.8 43.3C496 47 522 45 548 49.8C574 54.7 600 66.3 626 72.2C652 78 678 78 704.2 68.8C730.3 59.7 756.7 41.3 782.8 39.5C809 37.7 835 52.3 861 53.5C887 54.7 913 42.3 939 46.3C965 50.3 991 70.7 1017.2 77C1043.3 83.3 1069.7 75.7 1095.8 70.5C1122 65.3 1148 62.7 1174 56.3C1200 50 1226 40 1252 38.7C1278 37.3 1304 44.7 1330.2 52.8C1356.3 61 1382.7 70 1408.8 64.8C1435 59.7 1461 40.3 1487 32.8C1513 25.3 1539 29.7 1565 33.2C1591 36.7 1617 39.3 1643.2 41C1669.3 42.7 1695.7 43.3 1721.8 44.5C1748 45.7 1774 47.3 1787 48.2L1800 49L1800 101L1787 101C1774 101 1748 101 1721.8 101C1695.7 101 1669.3 101 1643.2 101C1617 101 1591 101 1565 101C1539 101 1513 101 1487 101C1461 101 1435 101 1408.8 101C1382.7 101 1356.3 101 1330.2 101C1304 101 1278 101 1252 101C1226 101 1200 101 1174 101C1148 101 1122 101 1095.8 101C1069.7 101 1043.3 101 1017.2 101C991 101 965 101 939 101C913 101 887 101 861 101C835 101 809 101 782.8 101C756.7 101 730.3 101 704.2 101C678 101 652 101 626 101C600 101 574 101 548 101C522 101 496 101 469.8 101C443.7 101 417.3 101 391.2 101C365 101 339 101 313 101C287 101 261 101 235 101C209 101 183 101 156.8 101C130.7 101 104.3 101 78.2 101C52 101 26 101 13 101L0 101Z" fill="#FAEBD7" stroke-linecap="round" stroke-linejoin="miter"></path></svg>