<svg id="visual" viewBox="0 0 2000 100" width="2000" height="100" xmlns="http://www.w3.org/2000/svg" xmlns:xlink="http://www.w3.org/1999/xlink" version="1.1"><path d="M0 39L16.7 39.8C33.3 40.7 66.7 42.3 100 40C133.3 37.7 166.7 31.3 200 30.3C233.3 29.3 266.7 33.7 300 42.8C333.3 52 366.7 66 400 60.3C433.3 54.7 466.7 29.3 500 32C533.3 34.7 566.7 65.3 600 67.3C633.3 69.3 666.7 42.7 700 38C733.3 33.3 766.7 50.7 800 58C833.3 65.3 866.7 62.7 900 61.7C933.3 60.7 966.7 61.3 1000 65.2C1033.3 69 1066.7 76 1100 77.3C1133.3 78.7 1166.7 74.3 1200 63.3C1233.3 52.3 1266.7 34.7 1300 37.7C1333.3 40.7 1366.7 64.3 1400 74.3C1433.3 84.3 1466.7 80.7 1500 80.8C1533.3 81 1566.7 85 1600 79.2C1633.3 73.3 1666.7 57.7 1700 50C1733.3 42.3 1766.7 42.7 1800 51.2C1833.3 59.7 1866.7 76.3 1900 84.7C1933.3 93 1966.7 93 1983.3 93L2000 93L2000 101L1983.3 101C1966.7 101 1933.3 101 1900 101C1866.7 101 1833.3 101 1800 101C1766.7 101 1733.3 101 1700 101C1666.7 101 1633.3 101 1600 101C1566.7 101 1533.3 101 1500 101C1466.7 101 1433.3 101 1400 101C1366.7 101 1333.3 101 1300 101C1266.7 101 1233.3 101 1200 101C1166.7 101 1133.3 101 1100 101C1066.7 101 1033.3 101 1000 101C966.7 101 933.3 101 900 101C866.7 101 833.3 101 800 101C766.7 101 733.3 101 700 101C666.7 101 633.3 101 600 101C566.7 101 533.3 101 500 101C466.7 101 433.3 101 400 101C366.7 101 333.3 101 300 101C266.7 101 233.3 101 200 101C166.7 101 133.3 101 100 101C66.7 101 33.3 101 16.7 101L0 101Z" fill="#04577D" stroke-linecap="round" stroke-linejoin="miter"></path></svg>