<svg id="visual" viewBox="0 0 960 540" width="960" height="540" xmlns="http://www.w3.org/2000/svg" xmlns:xlink="http://www.w3.org/1999/xlink" version="1.1"><path d="M0 522L8.8 515.8C17.7 509.7 35.3 497.3 53.2 477.3C71 457.3 89 429.7 106.8 415.3C124.7 401 142.3 400 160 411.7C177.7 423.3 195.3 447.7 213.2 454.8C231 462 249 452 266.8 442.8C284.7 433.7 302.3 425.3 320 420C337.7 414.7 355.3 412.3 373.2 426.3C391 440.3 409 470.7 426.8 471.2C444.7 471.7 462.3 442.3 480 437.5C497.7 432.7 515.3 452.3 533.2 468.3C551 484.3 569 496.7 586.8 504.8C604.7 513 622.3 517 640 515.7C657.7 514.3 675.3 507.7 693.2 492.5C711 477.3 729 453.7 746.8 450.5C764.7 447.3 782.3 464.7 800 459.7C817.7 454.7 835.3 427.3 853.2 417.7C871 408 889 416 906.8 417.2C924.7 418.3 942.3 412.7 951.2 409.8L960 407L960 541L951.2 541C942.3 541 924.7 541 906.8 541C889 541 871 541 853.2 541C835.3 541 817.7 541 800 541C782.3 541 764.7 541 746.8 541C729 541 711 541 693.2 541C675.3 541 657.7 541 640 541C622.3 541 604.7 541 586.8 541C569 541 551 541 533.2 541C515.3 541 497.7 541 480 541C462.3 541 444.7 541 426.8 541C409 541 391 541 373.2 541C355.3 541 337.7 541 320 541C302.3 541 284.7 541 266.8 541C249 541 231 541 213.2 541C195.3 541 177.7 541 160 541C142.3 541 124.7 541 106.8 541C89 541 71 541 53.2 541C35.3 541 17.7 541 8.8 541L0 541Z" fill="#c987d8" stroke-linecap="round" stroke-linejoin="miter"></path></svg>